<?xml version="1.0" encoding="utf-8"?>
<!-- Generator: Adobe Illustrator 24.0.1, SVG Export Plug-In . SVG Version: 6.00 Build 0)  -->
<svg version="1.1" id="레이어_1" xmlns="http://www.w3.org/2000/svg" xmlns:xlink="http://www.w3.org/1999/xlink" x="0px"
	 y="0px" viewBox="0 0 100 100" style="enable-background:new 0 0 100 100;" xml:space="preserve">
<style type="text/css">
	.st0{fill:#88BD2A;}
	.st1{fill:#EFB43C;}
	.st2{fill:#4A8CCA;}
	.st3{fill:#D02530;}
	.st4{fill:#FFFFFF;}
</style>
<g>
	<g>
		<g>
			<g>
				<g>
					<path class="st0" d="M23,61.5c0,0-7.7,0.5-9.2,2.3c-1.4,1.8,1.2,3.5,4.2,3.5c0,0-2.5,3.2,1.4,3.3c0,0-0.5,2.5,1.9,2
						c2.3-0.5,5.9-5.9,5.9-5.9L23,61.5z"/>
					<path class="st1" d="M24.9,61c0,0-7,0.5-8.2,2.1s1.1,3.1,3.8,3.2c0,0-2.2,2.8,1.3,2.9c0,0-0.4,2.3,1.7,1.8
						c2.1-0.5,5.4-5.3,5.4-5.3L24.9,61z"/>
					<path class="st2" d="M27.7,59.9c0,0-6.7,0.8-8,2.4c-1.3,1.6,0.9,2.8,3.5,2.7c0,0-2.3,2.7,1.1,2.6c0,0-0.5,2.1,1.5,1.6
						c2-0.6,5.4-5.2,5.4-5.2L27.7,59.9z"/>
				</g>
			</g>
		</g>
		<g>
			<g>
				<g>
					<path class="st0" d="M77,61.5c0,0,7.7,0.5,9.2,2.3c1.4,1.8-1.2,3.5-4.2,3.5c0,0,2.5,3.2-1.4,3.3c0,0,0.5,2.5-1.9,2
						c-2.3-0.5-5.9-5.9-5.9-5.9L77,61.5z"/>
					<path class="st1" d="M75.1,61c0,0,7,0.5,8.2,2.1s-1.1,3.1-3.8,3.2c0,0,2.2,2.8-1.3,2.9c0,0,0.4,2.3-1.7,1.8
						c-2.1-0.5-5.4-5.3-5.4-5.3L75.1,61z"/>
					<path class="st2" d="M72.3,59.9c0,0,6.7,0.8,8,2.4s-0.9,2.8-3.5,2.7c0,0,2.3,2.7-1.1,2.6c0,0,0.5,2.1-1.5,1.6
						c-2-0.6-5.4-5.2-5.4-5.2L72.3,59.9z"/>
				</g>
			</g>
		</g>
	</g>
	<g>
		<path class="st3" d="M46.5,26.9c0,0,1.3-7.4,9.1-13.1c1.3-1,3.1,0.5,2.4,2c-2,3.9-4,9.1-2.4,11.2c0,0,0.3-1.4,1.8-3
			c1.6-1.8,4.6-0.3,4.2,2.1c-0.2,1.3-0.3,2.6-0.1,3.5C62.3,32.2,48.5,36.4,46.5,26.9z"/>
		<path class="st3" d="M77.7,61.9c0,20-12.4,18.3-27.7,18.3s-27.7,1.6-27.7-18.3S34.7,25.7,50,25.7S77.7,41.9,77.7,61.9z"/>
		<g>
			<path class="st4" d="M44.6,48.8c0,3.8-2.1,5.9-4.8,5.9S35,52.7,35,48.8s2.1-7,4.8-7S44.6,45,44.6,48.8z"/>
			<circle cx="42.1" cy="48.3" r="2.3"/>
			<path class="st4" d="M55.4,48.8c0,3.8,2.1,5.9,4.8,5.9s4.8-2.1,4.8-5.9s-2.1-7-4.8-7S55.4,45,55.4,48.8z"/>
			<circle cx="57.9" cy="48.3" r="2.3"/>
		</g>
		<g>
			<path d="M46.2,56.2c0,0-0.3,2.3,4.4,2.3s4-2.9,4-2.9S47.3,53.2,46.2,56.2z"/>
			<path class="st1" d="M46.4,56.6c-0.8,0-1.4-0.6-1.4-1.4c-0.1-2.1,0.8-7.7,4.9-7.9c5-0.2,5.5,5.2,5.5,7.8c0,0.8-0.6,1.4-1.4,1.4
				H46.4z"/>
		</g>
	</g>
</g>
</svg>
