<?xml version="1.0" encoding="utf-8"?>
<!-- Generator: Adobe Illustrator 24.0.1, SVG Export Plug-In . SVG Version: 6.00 Build 0)  -->
<svg version="1.1" id="레이어_1" xmlns="http://www.w3.org/2000/svg" xmlns:xlink="http://www.w3.org/1999/xlink" x="0px"
	 y="0px" viewBox="0 0 100 100" style="enable-background:new 0 0 100 100;" xml:space="preserve">
<style type="text/css">
	.st0{fill:#2F3138;}
	.st1{fill:#E7EAF2;}
	.st2{fill:#F2B3C0;}
</style>
<g>
	<g>
		<circle class="st0" cx="20.5" cy="29.8" r="11.8"/>
		<circle class="st0" cx="79.5" cy="29.8" r="11.8"/>
	</g>
	<g>
		<path class="st1" d="M43.8,20.4h12.3c17.2,0,31.1,14.1,30.8,31.4l0,0c-0.3,16.8-14,30.3-30.8,30.3H43.8C27,82.1,13.3,68.6,13,51.8
			l0,0C12.7,34.5,26.6,20.4,43.8,20.4z"/>
	</g>
	<g>
		<ellipse transform="matrix(0.754 -0.6569 0.6569 0.754 -22.2884 35.0656)" class="st0" cx="35.7" cy="47.3" rx="10.7" ry="9.3"/>
		<circle cx="37.7" cy="46.2" r="3"/>
		<circle class="st1" cx="38.6" cy="45.2" r="1.1"/>
		<ellipse transform="matrix(0.6569 -0.754 0.754 0.6569 -13.6301 64.7118)" class="st0" cx="64.3" cy="47.3" rx="9.3" ry="10.7"/>
		<circle cx="62.3" cy="46.2" r="3"/>
		<circle class="st1" cx="61.4" cy="45.2" r="1.1"/>
	</g>
	<g>
		<path class="st0" d="M48,53h3.7c1.6,0,2.4,1.4,1.3,2.2l-1.8,1.4c-0.7,0.5-1.9,0.5-2.7,0l-1.8-1.4C45.6,54.4,46.4,53,48,53z"/>
		<rect x="49.3" y="56.1" class="st0" width="1.4" height="6.1"/>
		<rect x="43.8" y="62.2" class="st0" width="12.4" height="1.4"/>
	</g>
	<g>
		<ellipse class="st2" cx="25.7" cy="59.1" rx="4.9" ry="3"/>
		<ellipse class="st2" cx="74.3" cy="59.1" rx="4.9" ry="3"/>
	</g>
</g>
</svg>
