<?xml version="1.0" encoding="utf-8"?>
<!-- Generator: Adobe Illustrator 24.0.1, SVG Export Plug-In . SVG Version: 6.00 Build 0)  -->
<svg version="1.1" id="레이어_1" xmlns="http://www.w3.org/2000/svg" xmlns:xlink="http://www.w3.org/1999/xlink" x="0px"
	 y="0px" viewBox="0 0 221.3 221.3" style="enable-background:new 0 0 221.3 221.3;" xml:space="preserve">
<style type="text/css">
	.st0{fill:#FFFFFF;}
</style>
<path class="st0" d="M176.9,24.8c10.8,0,19.7,8.9,19.7,19.7v132.2c0,10.8-8.9,19.7-19.7,19.7H44.5c-10.8,0-19.7-8.9-19.7-19.7V44.5
	c0-10.8,8.9-19.7,19.7-19.7H176.9 M176.9,4.4H44.5C22.3,4.4,4.4,22.3,4.4,44.5v132.2c0,22.1,17.9,40.1,40.1,40.1h132.2
	c22.1,0,40.1-17.9,40.1-40.1V44.5C216.9,22.5,198.9,4.4,176.9,4.4L176.9,4.4z"/>
<g>
	<path class="st0" d="M74.6,157l80.5-46.5L74.6,64V157z"/>
</g>
</svg>
